<svg width="1440" height="15" viewBox="0 0 1440 15" fill="none" xmlns="http://www.w3.org/2000/svg">
<path d="M1.5 7.33496C1.5 10.6232 4.27478 13.2295 7.55664 13.0244L11.791 12.7598C14.0369 12.6194 16.2894 12.7507 18.5 13.1465V7.66504C18.5 4.37678 15.7252 1.77047 12.4434 1.97559L8.20898 2.24023C5.96301 2.38061 3.71063 2.24837 1.5 1.85254V7.33496Z" stroke="#49D0DB" stroke-width="3"/>
<path d="M38.5 7.33496C38.5 10.6232 35.7252 13.2295 32.4434 13.0244L28.209 12.7598C25.9631 12.6194 23.7106 12.7507 21.5 13.1465V7.66504C21.5 4.37678 24.2748 1.77047 27.5566 1.97559L31.791 2.24023C34.037 2.38061 36.2894 2.24837 38.5 1.85254V7.33496Z" stroke="#0087DD" stroke-width="3"/>
<path d="M41.5 7.33496C41.5 10.6232 44.2748 13.2295 47.5566 13.0244L51.791 12.7598C54.0369 12.6194 56.2894 12.7507 58.5 13.1465V7.66504C58.5 4.37678 55.7252 1.77047 52.4434 1.97559L48.209 2.24023C45.963 2.38061 43.7106 2.24837 41.5 1.85254V7.33496Z" stroke="#49D0DB" stroke-width="3"/>
<path d="M78.5 7.33496C78.5 10.6232 75.7252 13.2295 72.4434 13.0244L68.209 12.7598C65.9631 12.6194 63.7106 12.7507 61.5 13.1465V7.66504C61.5 4.37678 64.2748 1.77047 67.5566 1.97559L71.791 2.24023C74.037 2.38061 76.2894 2.24837 78.5 1.85254V7.33496Z" stroke="#0087DD" stroke-width="3"/>
<path d="M81.5 7.33496C81.5 10.6232 84.2748 13.2295 87.5566 13.0244L91.791 12.7598C94.0369 12.6194 96.2894 12.7507 98.5 13.1465V7.66504C98.5 4.37678 95.7252 1.77047 92.4434 1.97559L88.209 2.24023C85.963 2.38061 83.7106 2.24837 81.5 1.85254V7.33496Z" stroke="#49D0DB" stroke-width="3"/>
<path d="M118.5 7.33496C118.5 10.6232 115.725 13.2295 112.443 13.0244L108.209 12.7598C105.963 12.6194 103.711 12.7507 101.5 13.1465V7.66504C101.5 4.37678 104.275 1.77047 107.557 1.97559L111.791 2.24023C114.037 2.38061 116.289 2.24837 118.5 1.85254V7.33496Z" stroke="#0087DD" stroke-width="3"/>
<path d="M121.5 7.33496C121.5 10.6232 124.275 13.2295 127.557 13.0244L131.791 12.7598C134.037 12.6194 136.289 12.7507 138.5 13.1465V7.66504C138.5 4.37678 135.725 1.77047 132.443 1.97559L128.209 2.24023C125.963 2.38061 123.711 2.24837 121.5 1.85254V7.33496Z" stroke="#49D0DB" stroke-width="3"/>
<path d="M158.5 7.33496C158.5 10.6232 155.725 13.2295 152.443 13.0244L148.209 12.7598C145.963 12.6194 143.711 12.7507 141.5 13.1465V7.66504C141.5 4.37678 144.275 1.77047 147.557 1.97559L151.791 2.24023C154.037 2.38061 156.289 2.24837 158.5 1.85254V7.33496Z" stroke="#0087DD" stroke-width="3"/>
<path d="M161.5 7.33496C161.5 10.6232 164.275 13.2295 167.557 13.0244L171.791 12.7598C174.037 12.6194 176.289 12.7507 178.5 13.1465V7.66504C178.5 4.37678 175.725 1.77047 172.443 1.97559L168.209 2.24023C165.963 2.38061 163.711 2.24837 161.5 1.85254V7.33496Z" stroke="#49D0DB" stroke-width="3"/>
<path d="M198.5 7.33496C198.5 10.6232 195.725 13.2295 192.443 13.0244L188.209 12.7598C185.963 12.6194 183.711 12.7507 181.5 13.1465V7.66504C181.5 4.37678 184.275 1.77047 187.557 1.97559L191.791 2.24023C194.037 2.38061 196.289 2.24837 198.5 1.85254V7.33496Z" stroke="#0087DD" stroke-width="3"/>
<path d="M201.5 7.33496C201.5 10.6232 204.275 13.2295 207.557 13.0244L211.791 12.7598C214.037 12.6194 216.289 12.7507 218.5 13.1465V7.66504C218.5 4.37678 215.725 1.77047 212.443 1.97559L208.209 2.24023C205.963 2.38061 203.711 2.24837 201.5 1.85254V7.33496Z" stroke="#49D0DB" stroke-width="3"/>
<path d="M238.5 7.33496C238.5 10.6232 235.725 13.2295 232.443 13.0244L228.209 12.7598C225.963 12.6194 223.711 12.7507 221.5 13.1465V7.66504C221.5 4.37678 224.275 1.77047 227.557 1.97559L231.791 2.24023C234.037 2.38061 236.289 2.24837 238.5 1.85254V7.33496Z" stroke="#0087DD" stroke-width="3"/>
<path d="M241.5 7.33496C241.5 10.6232 244.275 13.2295 247.557 13.0244L251.791 12.7598C254.037 12.6194 256.289 12.7507 258.5 13.1465V7.66504C258.5 4.37678 255.725 1.77047 252.443 1.97559L248.209 2.24023C245.963 2.38061 243.711 2.24837 241.5 1.85254V7.33496Z" stroke="#49D0DB" stroke-width="3"/>
<path d="M278.5 7.33496C278.5 10.6232 275.725 13.2295 272.443 13.0244L268.209 12.7598C265.963 12.6194 263.711 12.7507 261.5 13.1465V7.66504C261.5 4.37678 264.275 1.77047 267.557 1.97559L271.791 2.24023C274.037 2.38061 276.289 2.24837 278.5 1.85254V7.33496Z" stroke="#0087DD" stroke-width="3"/>
<path d="M281.5 7.33496C281.5 10.6232 284.275 13.2295 287.557 13.0244L291.791 12.7598C294.037 12.6194 296.289 12.7507 298.5 13.1465V7.66504C298.5 4.37678 295.725 1.77047 292.443 1.97559L288.209 2.24023C285.963 2.38061 283.711 2.24837 281.5 1.85254V7.33496Z" stroke="#49D0DB" stroke-width="3"/>
<path d="M318.5 7.33496C318.5 10.6232 315.725 13.2295 312.443 13.0244L308.209 12.7598C305.963 12.6194 303.711 12.7507 301.5 13.1465V7.66504C301.5 4.37678 304.275 1.77047 307.557 1.97559L311.791 2.24023C314.037 2.38061 316.289 2.24837 318.5 1.85254V7.33496Z" stroke="#0087DD" stroke-width="3"/>
<path d="M321.5 7.33496C321.5 10.6232 324.275 13.2295 327.557 13.0244L331.791 12.7598C334.037 12.6194 336.289 12.7507 338.5 13.1465V7.66504C338.5 4.37678 335.725 1.77047 332.443 1.97559L328.209 2.24023C325.963 2.38061 323.711 2.24837 321.5 1.85254V7.33496Z" stroke="#49D0DB" stroke-width="3"/>
<path d="M358.5 7.33496C358.5 10.6232 355.725 13.2295 352.443 13.0244L348.209 12.7598C345.963 12.6194 343.711 12.7507 341.5 13.1465V7.66504C341.5 4.37678 344.275 1.77047 347.557 1.97559L351.791 2.24023C354.037 2.38061 356.289 2.24837 358.5 1.85254V7.33496Z" stroke="#0087DD" stroke-width="3"/>
<path d="M361.5 7.33496C361.5 10.6232 364.275 13.2295 367.557 13.0244L371.791 12.7598C374.037 12.6194 376.289 12.7507 378.5 13.1465V7.66504C378.5 4.37678 375.725 1.77047 372.443 1.97559L368.209 2.24023C365.963 2.38061 363.711 2.24837 361.5 1.85254V7.33496Z" stroke="#49D0DB" stroke-width="3"/>
<path d="M398.5 7.33496C398.5 10.6232 395.725 13.2295 392.443 13.0244L388.209 12.7598C385.963 12.6194 383.711 12.7507 381.5 13.1465V7.66504C381.5 4.37678 384.275 1.77047 387.557 1.97559L391.791 2.24023C394.037 2.38061 396.289 2.24837 398.5 1.85254V7.33496Z" stroke="#0087DD" stroke-width="3"/>
<path d="M401.5 7.33496C401.5 10.6232 404.275 13.2295 407.557 13.0244L411.791 12.7598C414.037 12.6194 416.289 12.7507 418.5 13.1465V7.66504C418.5 4.37678 415.725 1.77047 412.443 1.97559L408.209 2.24023C405.963 2.38061 403.711 2.24837 401.5 1.85254V7.33496Z" stroke="#49D0DB" stroke-width="3"/>
<path d="M438.5 7.33496C438.5 10.6232 435.725 13.2295 432.443 13.0244L428.209 12.7598C425.963 12.6194 423.711 12.7507 421.5 13.1465V7.66504C421.5 4.37678 424.275 1.77047 427.557 1.97559L431.791 2.24023C434.037 2.38061 436.289 2.24837 438.5 1.85254V7.33496Z" stroke="#0087DD" stroke-width="3"/>
<path d="M441.5 7.33496C441.5 10.6232 444.275 13.2295 447.557 13.0244L451.791 12.7598C454.037 12.6194 456.289 12.7507 458.5 13.1465V7.66504C458.5 4.37678 455.725 1.77047 452.443 1.97559L448.209 2.24023C445.963 2.38061 443.711 2.24837 441.5 1.85254V7.33496Z" stroke="#49D0DB" stroke-width="3"/>
<path d="M478.5 7.33496C478.5 10.6232 475.725 13.2295 472.443 13.0244L468.209 12.7598C465.963 12.6194 463.711 12.7507 461.5 13.1465V7.66504C461.5 4.37678 464.275 1.77047 467.557 1.97559L471.791 2.24023C474.037 2.38061 476.289 2.24837 478.5 1.85254V7.33496Z" stroke="#0087DD" stroke-width="3"/>
<path d="M481.5 7.33496C481.5 10.6232 484.275 13.2295 487.557 13.0244L491.791 12.7598C494.037 12.6194 496.289 12.7507 498.5 13.1465V7.66504C498.5 4.37678 495.725 1.77047 492.443 1.97559L488.209 2.24023C485.963 2.38061 483.711 2.24837 481.5 1.85254V7.33496Z" stroke="#49D0DB" stroke-width="3"/>
<path d="M518.5 7.33496C518.5 10.6232 515.725 13.2295 512.443 13.0244L508.209 12.7598C505.963 12.6194 503.711 12.7507 501.5 13.1465V7.66504C501.5 4.37678 504.275 1.77047 507.557 1.97559L511.791 2.24023C514.037 2.38061 516.289 2.24837 518.5 1.85254V7.33496Z" stroke="#0087DD" stroke-width="3"/>
<path d="M521.5 7.33496C521.5 10.6232 524.275 13.2295 527.557 13.0244L531.791 12.7598C534.037 12.6194 536.289 12.7507 538.5 13.1465V7.66504C538.5 4.37678 535.725 1.77047 532.443 1.97559L528.209 2.24023C525.963 2.38061 523.711 2.24837 521.5 1.85254V7.33496Z" stroke="#49D0DB" stroke-width="3"/>
<path d="M558.5 7.33496C558.5 10.6232 555.725 13.2295 552.443 13.0244L548.209 12.7598C545.963 12.6194 543.711 12.7507 541.5 13.1465V7.66504C541.5 4.37678 544.275 1.77047 547.557 1.97559L551.791 2.24023C554.037 2.38061 556.289 2.24837 558.5 1.85254V7.33496Z" stroke="#0087DD" stroke-width="3"/>
<path d="M561.5 7.33496C561.5 10.6232 564.275 13.2295 567.557 13.0244L571.791 12.7598C574.037 12.6194 576.289 12.7507 578.5 13.1465V7.66504C578.5 4.37678 575.725 1.77047 572.443 1.97559L568.209 2.24023C565.963 2.38061 563.711 2.24837 561.5 1.85254V7.33496Z" stroke="#49D0DB" stroke-width="3"/>
<path d="M598.5 7.33496C598.5 10.6232 595.725 13.2295 592.443 13.0244L588.209 12.7598C585.963 12.6194 583.711 12.7507 581.5 13.1465V7.66504C581.5 4.37678 584.275 1.77047 587.557 1.97559L591.791 2.24023C594.037 2.38061 596.289 2.24837 598.5 1.85254V7.33496Z" stroke="#0087DD" stroke-width="3"/>
<path d="M601.5 7.33496C601.5 10.6232 604.275 13.2295 607.557 13.0244L611.791 12.7598C614.037 12.6194 616.289 12.7507 618.5 13.1465V7.66504C618.5 4.37678 615.725 1.77047 612.443 1.97559L608.209 2.24023C605.963 2.38061 603.711 2.24837 601.5 1.85254V7.33496Z" stroke="#49D0DB" stroke-width="3"/>
<path d="M638.5 7.33496C638.5 10.6232 635.725 13.2295 632.443 13.0244L628.209 12.7598C625.963 12.6194 623.711 12.7507 621.5 13.1465V7.66504C621.5 4.37678 624.275 1.77047 627.557 1.97559L631.791 2.24023C634.037 2.38061 636.289 2.24837 638.5 1.85254V7.33496Z" stroke="#0087DD" stroke-width="3"/>
<path d="M641.5 7.33496C641.5 10.6232 644.275 13.2295 647.557 13.0244L651.791 12.7598C654.037 12.6194 656.289 12.7507 658.5 13.1465V7.66504C658.5 4.37678 655.725 1.77047 652.443 1.97559L648.209 2.24023C645.963 2.38061 643.711 2.24837 641.5 1.85254V7.33496Z" stroke="#49D0DB" stroke-width="3"/>
<path d="M678.5 7.33496C678.5 10.6232 675.725 13.2295 672.443 13.0244L668.209 12.7598C665.963 12.6194 663.711 12.7507 661.5 13.1465V7.66504C661.5 4.37678 664.275 1.77047 667.557 1.97559L671.791 2.24023C674.037 2.38061 676.289 2.24837 678.5 1.85254V7.33496Z" stroke="#0087DD" stroke-width="3"/>
<path d="M681.5 7.33496C681.5 10.6232 684.275 13.2295 687.557 13.0244L691.791 12.7598C694.037 12.6194 696.289 12.7507 698.5 13.1465V7.66504C698.5 4.37678 695.725 1.77047 692.443 1.97559L688.209 2.24023C685.963 2.38061 683.711 2.24837 681.5 1.85254V7.33496Z" stroke="#49D0DB" stroke-width="3"/>
<path d="M718.5 7.33496C718.5 10.6232 715.725 13.2295 712.443 13.0244L708.209 12.7598C705.963 12.6194 703.711 12.7507 701.5 13.1465V7.66504C701.5 4.37678 704.275 1.77047 707.557 1.97559L711.791 2.24023C714.037 2.38061 716.289 2.24837 718.5 1.85254V7.33496Z" stroke="#0087DD" stroke-width="3"/>
<path d="M721.5 7.33496C721.5 10.6232 724.275 13.2295 727.557 13.0244L731.791 12.7598C734.037 12.6194 736.289 12.7507 738.5 13.1465V7.66504C738.5 4.37678 735.725 1.77047 732.443 1.97559L728.209 2.24023C725.963 2.38061 723.711 2.24837 721.5 1.85254V7.33496Z" stroke="#49D0DB" stroke-width="3"/>
<path d="M758.5 7.33496C758.5 10.6232 755.725 13.2295 752.443 13.0244L748.209 12.7598C745.963 12.6194 743.711 12.7507 741.5 13.1465V7.66504C741.5 4.37678 744.275 1.77047 747.557 1.97559L751.791 2.24023C754.037 2.38061 756.289 2.24837 758.5 1.85254V7.33496Z" stroke="#0087DD" stroke-width="3"/>
<path d="M761.5 7.33496C761.5 10.6232 764.275 13.2295 767.557 13.0244L771.791 12.7598C774.037 12.6194 776.289 12.7507 778.5 13.1465V7.66504C778.5 4.37678 775.725 1.77047 772.443 1.97559L768.209 2.24023C765.963 2.38061 763.711 2.24837 761.5 1.85254V7.33496Z" stroke="#49D0DB" stroke-width="3"/>
<path d="M798.5 7.33496C798.5 10.6232 795.725 13.2295 792.443 13.0244L788.209 12.7598C785.963 12.6194 783.711 12.7507 781.5 13.1465V7.66504C781.5 4.37678 784.275 1.77047 787.557 1.97559L791.791 2.24023C794.037 2.38061 796.289 2.24837 798.5 1.85254V7.33496Z" stroke="#0087DD" stroke-width="3"/>
<path d="M801.5 7.33496C801.5 10.6232 804.275 13.2295 807.557 13.0244L811.791 12.7598C814.037 12.6194 816.289 12.7507 818.5 13.1465V7.66504C818.5 4.37678 815.725 1.77047 812.443 1.97559L808.209 2.24023C805.963 2.38061 803.711 2.24837 801.5 1.85254V7.33496Z" stroke="#49D0DB" stroke-width="3"/>
<path d="M838.5 7.33496C838.5 10.6232 835.725 13.2295 832.443 13.0244L828.209 12.7598C825.963 12.6194 823.711 12.7507 821.5 13.1465V7.66504C821.5 4.37678 824.275 1.77047 827.557 1.97559L831.791 2.24023C834.037 2.38061 836.289 2.24837 838.5 1.85254V7.33496Z" stroke="#0087DD" stroke-width="3"/>
<path d="M841.5 7.33496C841.5 10.6232 844.275 13.2295 847.557 13.0244L851.791 12.7598C854.037 12.6194 856.289 12.7507 858.5 13.1465V7.66504C858.5 4.37678 855.725 1.77047 852.443 1.97559L848.209 2.24023C845.963 2.38061 843.711 2.24837 841.5 1.85254V7.33496Z" stroke="#49D0DB" stroke-width="3"/>
<path d="M878.5 7.33496C878.5 10.6232 875.725 13.2295 872.443 13.0244L868.209 12.7598C865.963 12.6194 863.711 12.7507 861.5 13.1465V7.66504C861.5 4.37678 864.275 1.77047 867.557 1.97559L871.791 2.24023C874.037 2.38061 876.289 2.24837 878.5 1.85254V7.33496Z" stroke="#0087DD" stroke-width="3"/>
<path d="M881.5 7.33496C881.5 10.6232 884.275 13.2295 887.557 13.0244L891.791 12.7598C894.037 12.6194 896.289 12.7507 898.5 13.1465V7.66504C898.5 4.37678 895.725 1.77047 892.443 1.97559L888.209 2.24023C885.963 2.38061 883.711 2.24837 881.5 1.85254V7.33496Z" stroke="#49D0DB" stroke-width="3"/>
<path d="M918.5 7.33496C918.5 10.6232 915.725 13.2295 912.443 13.0244L908.209 12.7598C905.963 12.6194 903.711 12.7507 901.5 13.1465V7.66504C901.5 4.37678 904.275 1.77047 907.557 1.97559L911.791 2.24023C914.037 2.38061 916.289 2.24837 918.5 1.85254V7.33496Z" stroke="#0087DD" stroke-width="3"/>
<path d="M921.5 7.33496C921.5 10.6232 924.275 13.2295 927.557 13.0244L931.791 12.7598C934.037 12.6194 936.289 12.7507 938.5 13.1465V7.66504C938.5 4.37678 935.725 1.77047 932.443 1.97559L928.209 2.24023C925.963 2.38061 923.711 2.24837 921.5 1.85254V7.33496Z" stroke="#49D0DB" stroke-width="3"/>
<path d="M958.5 7.33496C958.5 10.6232 955.725 13.2295 952.443 13.0244L948.209 12.7598C945.963 12.6194 943.711 12.7507 941.5 13.1465V7.66504C941.5 4.37678 944.275 1.77047 947.557 1.97559L951.791 2.24023C954.037 2.38061 956.289 2.24837 958.5 1.85254V7.33496Z" stroke="#0087DD" stroke-width="3"/>
<path d="M961.5 7.33496C961.5 10.6232 964.275 13.2295 967.557 13.0244L971.791 12.7598C974.037 12.6194 976.289 12.7507 978.5 13.1465V7.66504C978.5 4.37678 975.725 1.77047 972.443 1.97559L968.209 2.24023C965.963 2.38061 963.711 2.24837 961.5 1.85254V7.33496Z" stroke="#49D0DB" stroke-width="3"/>
<path d="M998.5 7.33496C998.5 10.6232 995.725 13.2295 992.443 13.0244L988.209 12.7598C985.963 12.6194 983.711 12.7507 981.5 13.1465V7.66504C981.5 4.37678 984.275 1.77047 987.557 1.97559L991.791 2.24023C994.037 2.38061 996.289 2.24837 998.5 1.85254V7.33496Z" stroke="#0087DD" stroke-width="3"/>
<path d="M1001.5 7.33496C1001.5 10.6232 1004.27 13.2295 1007.56 13.0244L1011.79 12.7598C1014.04 12.6194 1016.29 12.7507 1018.5 13.1465V7.66504C1018.5 4.37678 1015.73 1.77047 1012.44 1.97559L1008.21 2.24023C1005.96 2.38061 1003.71 2.24837 1001.5 1.85254V7.33496Z" stroke="#49D0DB" stroke-width="3"/>
<path d="M1038.5 7.33496C1038.5 10.6232 1035.73 13.2295 1032.44 13.0244L1028.21 12.7598C1025.96 12.6194 1023.71 12.7507 1021.5 13.1465V7.66504C1021.5 4.37678 1024.27 1.77047 1027.56 1.97559L1031.79 2.24023C1034.04 2.38061 1036.29 2.24837 1038.5 1.85254V7.33496Z" stroke="#0087DD" stroke-width="3"/>
<path d="M1041.5 7.33496C1041.5 10.6232 1044.27 13.2295 1047.56 13.0244L1051.79 12.7598C1054.04 12.6194 1056.29 12.7507 1058.5 13.1465V7.66504C1058.5 4.37678 1055.73 1.77047 1052.44 1.97559L1048.21 2.24023C1045.96 2.38061 1043.71 2.24837 1041.5 1.85254V7.33496Z" stroke="#49D0DB" stroke-width="3"/>
<path d="M1078.5 7.33496C1078.5 10.6232 1075.73 13.2295 1072.44 13.0244L1068.21 12.7598C1065.96 12.6194 1063.71 12.7507 1061.5 13.1465V7.66504C1061.5 4.37678 1064.27 1.77047 1067.56 1.97559L1071.79 2.24023C1074.04 2.38061 1076.29 2.24837 1078.5 1.85254V7.33496Z" stroke="#0087DD" stroke-width="3"/>
<path d="M1081.5 7.33496C1081.5 10.6232 1084.27 13.2295 1087.56 13.0244L1091.79 12.7598C1094.04 12.6194 1096.29 12.7507 1098.5 13.1465V7.66504C1098.5 4.37678 1095.73 1.77047 1092.44 1.97559L1088.21 2.24023C1085.96 2.38061 1083.71 2.24837 1081.5 1.85254V7.33496Z" stroke="#49D0DB" stroke-width="3"/>
<path d="M1118.5 7.33496C1118.5 10.6232 1115.73 13.2295 1112.44 13.0244L1108.21 12.7598C1105.96 12.6194 1103.71 12.7507 1101.5 13.1465V7.66504C1101.5 4.37678 1104.27 1.77047 1107.56 1.97559L1111.79 2.24023C1114.04 2.38061 1116.29 2.24837 1118.5 1.85254V7.33496Z" stroke="#0087DD" stroke-width="3"/>
<path d="M1121.5 7.33496C1121.5 10.6232 1124.27 13.2295 1127.56 13.0244L1131.79 12.7598C1134.04 12.6194 1136.29 12.7507 1138.5 13.1465V7.66504C1138.5 4.37678 1135.73 1.77047 1132.44 1.97559L1128.21 2.24023C1125.96 2.38061 1123.71 2.24837 1121.5 1.85254V7.33496Z" stroke="#49D0DB" stroke-width="3"/>
<path d="M1158.5 7.33496C1158.5 10.6232 1155.73 13.2295 1152.44 13.0244L1148.21 12.7598C1145.96 12.6194 1143.71 12.7507 1141.5 13.1465V7.66504C1141.5 4.37678 1144.27 1.77047 1147.56 1.97559L1151.79 2.24023C1154.04 2.38061 1156.29 2.24837 1158.5 1.85254V7.33496Z" stroke="#0087DD" stroke-width="3"/>
<path d="M1161.5 7.33496C1161.5 10.6232 1164.27 13.2295 1167.56 13.0244L1171.79 12.7598C1174.04 12.6194 1176.29 12.7507 1178.5 13.1465V7.66504C1178.5 4.37678 1175.73 1.77047 1172.44 1.97559L1168.21 2.24023C1165.96 2.38061 1163.71 2.24837 1161.5 1.85254V7.33496Z" stroke="#49D0DB" stroke-width="3"/>
<path d="M1198.5 7.33496C1198.5 10.6232 1195.73 13.2295 1192.44 13.0244L1188.21 12.7598C1185.96 12.6194 1183.71 12.7507 1181.5 13.1465V7.66504C1181.5 4.37678 1184.27 1.77047 1187.56 1.97559L1191.79 2.24023C1194.04 2.38061 1196.29 2.24837 1198.5 1.85254V7.33496Z" stroke="#0087DD" stroke-width="3"/>
<path d="M1201.5 7.33496C1201.5 10.6232 1204.27 13.2295 1207.56 13.0244L1211.79 12.7598C1214.04 12.6194 1216.29 12.7507 1218.5 13.1465V7.66504C1218.5 4.37678 1215.73 1.77047 1212.44 1.97559L1208.21 2.24023C1205.96 2.38061 1203.71 2.24837 1201.5 1.85254V7.33496Z" stroke="#49D0DB" stroke-width="3"/>
<path d="M1238.5 7.33496C1238.5 10.6232 1235.73 13.2295 1232.44 13.0244L1228.21 12.7598C1225.96 12.6194 1223.71 12.7507 1221.5 13.1465V7.66504C1221.5 4.37678 1224.27 1.77047 1227.56 1.97559L1231.79 2.24023C1234.04 2.38061 1236.29 2.24837 1238.5 1.85254V7.33496Z" stroke="#0087DD" stroke-width="3"/>
<path d="M1241.5 7.33496C1241.5 10.6232 1244.27 13.2295 1247.56 13.0244L1251.79 12.7598C1254.04 12.6194 1256.29 12.7507 1258.5 13.1465V7.66504C1258.5 4.37678 1255.73 1.77047 1252.44 1.97559L1248.21 2.24023C1245.96 2.38061 1243.71 2.24837 1241.5 1.85254V7.33496Z" stroke="#49D0DB" stroke-width="3"/>
<path d="M1278.5 7.33496C1278.5 10.6232 1275.73 13.2295 1272.44 13.0244L1268.21 12.7598C1265.96 12.6194 1263.71 12.7507 1261.5 13.1465V7.66504C1261.5 4.37678 1264.27 1.77047 1267.56 1.97559L1271.79 2.24023C1274.04 2.38061 1276.29 2.24837 1278.5 1.85254V7.33496Z" stroke="#0087DD" stroke-width="3"/>
<path d="M1281.5 7.33496C1281.5 10.6232 1284.27 13.2295 1287.56 13.0244L1291.79 12.7598C1294.04 12.6194 1296.29 12.7507 1298.5 13.1465V7.66504C1298.5 4.37678 1295.73 1.77047 1292.44 1.97559L1288.21 2.24023C1285.96 2.38061 1283.71 2.24837 1281.5 1.85254V7.33496Z" stroke="#49D0DB" stroke-width="3"/>
<path d="M1318.5 7.33496C1318.5 10.6232 1315.73 13.2295 1312.44 13.0244L1308.21 12.7598C1305.96 12.6194 1303.71 12.7507 1301.5 13.1465V7.66504C1301.5 4.37678 1304.27 1.77047 1307.56 1.97559L1311.79 2.24023C1314.04 2.38061 1316.29 2.24837 1318.5 1.85254V7.33496Z" stroke="#0087DD" stroke-width="3"/>
<path d="M1321.5 7.33496C1321.5 10.6232 1324.27 13.2295 1327.56 13.0244L1331.79 12.7598C1334.04 12.6194 1336.29 12.7507 1338.5 13.1465V7.66504C1338.5 4.37678 1335.73 1.77047 1332.44 1.97559L1328.21 2.24023C1325.96 2.38061 1323.71 2.24837 1321.5 1.85254V7.33496Z" stroke="#49D0DB" stroke-width="3"/>
<path d="M1358.5 7.33496C1358.5 10.6232 1355.73 13.2295 1352.44 13.0244L1348.21 12.7598C1345.96 12.6194 1343.71 12.7507 1341.5 13.1465V7.66504C1341.5 4.37678 1344.27 1.77047 1347.56 1.97559L1351.79 2.24023C1354.04 2.38061 1356.29 2.24837 1358.5 1.85254V7.33496Z" stroke="#0087DD" stroke-width="3"/>
<path d="M1361.5 7.33496C1361.5 10.6232 1364.27 13.2295 1367.56 13.0244L1371.79 12.7598C1374.04 12.6194 1376.29 12.7507 1378.5 13.1465V7.66504C1378.5 4.37678 1375.73 1.77047 1372.44 1.97559L1368.21 2.24023C1365.96 2.38061 1363.71 2.24837 1361.5 1.85254V7.33496Z" stroke="#49D0DB" stroke-width="3"/>
<path d="M1398.5 7.33496C1398.5 10.6232 1395.73 13.2295 1392.44 13.0244L1388.21 12.7598C1385.96 12.6194 1383.71 12.7507 1381.5 13.1465V7.66504C1381.5 4.37678 1384.27 1.77047 1387.56 1.97559L1391.79 2.24023C1394.04 2.38061 1396.29 2.24837 1398.5 1.85254V7.33496Z" stroke="#0087DD" stroke-width="3"/>
<path d="M1401.5 7.33496C1401.5 10.6232 1404.27 13.2295 1407.56 13.0244L1411.79 12.7598C1414.04 12.6194 1416.29 12.7507 1418.5 13.1465V7.66504C1418.5 4.37678 1415.73 1.77047 1412.44 1.97559L1408.21 2.24023C1405.96 2.38061 1403.71 2.24837 1401.5 1.85254V7.33496Z" stroke="#49D0DB" stroke-width="3"/>
<path d="M1438.5 7.33496C1438.5 10.6232 1435.73 13.2295 1432.44 13.0244L1428.21 12.7598C1425.96 12.6194 1423.71 12.7507 1421.5 13.1465V7.66504C1421.5 4.37678 1424.27 1.77047 1427.56 1.97559L1431.79 2.24023C1434.04 2.38061 1436.29 2.24837 1438.5 1.85254V7.33496Z" stroke="#0087DD" stroke-width="3"/>
</svg>
